<svg width="51" height="47" viewBox="0 0 51 47" fill="none" xmlns="http://www.w3.org/2000/svg">
<path d="M25.5 0C11.424 0 0 10.528 0 23.5C0 36.472 11.424 47 25.5 47C39.576 47 51 36.472 51 23.5C51 10.528 39.576 0 25.5 0ZM31.569 31.96V33.793H24.48V13.207H26.52V31.96H31.569ZM40.596 37.412C36.567 41.125 31.212 43.146 25.5 43.146C19.788 43.146 14.433 41.125 10.404 37.412C6.375 33.699 4.131 28.764 4.131 23.5C4.131 12.643 13.719 3.807 25.5 3.807C25.755 3.807 26.265 3.807 26.52 3.854V5.687C26.265 5.64 25.704 5.64 25.5 5.64C20.349 5.64 15.453 7.52 11.781 10.904C8.16 14.241 6.12 18.706 6.12 23.5C6.12 28.294 8.16 32.759 11.832 36.096C15.453 39.48 20.349 41.313 25.5 41.313C35.751 41.313 44.115 33.981 44.778 24.675C44.829 24.675 44.829 24.44 44.829 24.44H31.62V22.607H46.818V23.5C46.818 28.764 44.625 33.699 40.596 37.412ZM20.4 15.98C20.4 17.531 19.023 18.8 17.34 18.8C15.657 18.8 14.28 17.531 14.28 15.98C14.28 14.429 15.657 13.16 17.34 13.16C19.023 13.16 20.4 14.429 20.4 15.98Z" fill="black"/>
</svg>
