<svg width="53" height="51" viewBox="0 0 53 51" fill="none" xmlns="http://www.w3.org/2000/svg">
<path d="M1.89286 0C1.39992 0 0.961217 0.180242 0.57673 0.540737C0.192243 0.901231 0 1.32813 0 1.82143V49.1786C0 49.6718 0.192243 50.0987 0.57673 50.4593C0.961217 50.8198 1.39992 51 1.89286 51H51.1071C51.6001 51 52.0388 50.8198 52.4233 50.4593C52.8078 50.0987 53 49.6718 53 49.1786V1.82143C53 1.32813 52.8078 0.901231 52.4233 0.540737C52.0388 0.180242 51.6001 0 51.1071 0H1.89286ZM11.8599 12.75H22.0636L30.9364 25.5V12.75H41.1401V38.25H30.9364L22.0636 25.5V38.25H11.8599V12.75Z" fill="black"/>
</svg>
