<svg width="48" height="50" viewBox="0 0 48 50" fill="none" xmlns="http://www.w3.org/2000/svg">
<path d="M42.9799 4.57548C36.2911 -1.52516 25.3988 -1.52516 18.7172 4.57548L0.184681 21.4656C0.0639713 21.5757 6.56441e-05 21.7246 6.56441e-05 21.8801C6.56441e-05 22.0355 0.0639713 22.1844 0.184681 22.2945L2.80479 24.6843C2.92456 24.793 3.08668 24.8541 3.25568 24.8541C3.42468 24.8541 3.5868 24.793 3.70657 24.6843L22.2391 7.79418C24.5397 5.69587 27.6 4.5431 30.8521 4.5431C34.1041 4.5431 37.1645 5.69587 39.458 7.79418C41.7586 9.89249 43.0225 12.6838 43.0225 15.6434C43.0225 18.6095 41.7586 21.3943 39.458 23.4926L20.5704 40.713L17.5101 43.5043C14.6486 46.1142 9.99768 46.1142 7.13615 43.5043C5.75153 42.2414 4.99177 40.5641 4.99177 38.7766C4.99177 36.9892 5.75153 35.3118 7.13615 34.049L25.8746 16.9646C26.3503 16.5371 26.9752 16.2975 27.6426 16.2975H27.6497C28.3172 16.2975 28.9349 16.5371 29.4036 16.9646C29.8793 17.3985 30.1349 17.9684 30.1349 18.5772C30.1349 19.1795 29.8722 19.7494 29.4036 20.1768L14.0876 34.1332C13.9669 34.2432 13.903 34.3922 13.903 34.5476C13.903 34.7031 13.9669 34.852 14.0876 34.9621L16.7077 37.3519C16.8275 37.4606 16.9896 37.5217 17.1586 37.5217C17.3276 37.5217 17.4897 37.4606 17.6095 37.3519L32.9183 23.389C34.3314 22.1003 35.1053 20.3905 35.1053 18.5707C35.1053 16.7509 34.3243 15.0346 32.9183 13.7523C30 11.0906 25.2568 11.0971 22.3385 13.7523L20.5207 15.4167L3.60716 30.8367C2.45921 31.8776 1.54926 33.116 0.930066 34.4801C0.310873 35.8441 -0.00523789 37.3068 6.56441e-05 38.7831C6.56441e-05 41.7816 1.28527 44.5988 3.60716 46.7165C6.01426 48.9055 9.16691 50 12.3196 50C15.4722 50 18.6249 48.9055 21.0249 46.7165L42.9799 26.7049C46.2106 23.7517 48 19.8206 48 15.6434C48.0071 11.4597 46.2177 7.52866 42.9799 4.57548Z" fill="black"/>
</svg>
