<svg width="58" height="47" viewBox="0 0 58 47" fill="none" xmlns="http://www.w3.org/2000/svg">
<path d="M49.3 0H8.7C3.89512 0 0 3.15439 0 7.04553V39.9246C0 43.8158 3.89512 46.9702 8.7 46.9702H49.3C54.1049 46.9702 58 43.8158 58 39.9246V7.04553C58 3.15439 54.1049 0 49.3 0Z" fill="white"/>
<path d="M33.1449 30.4726C33.5398 31.2624 33.4189 32.2806 33.2336 32.8941C32.8951 33.9777 31.9843 35.0873 29.3084 35.0873C26.7776 35.0873 25.2462 33.9124 25.2462 32.1239V28.9648H14.4299L14.4219 31.4908C14.4219 38.7685 21.4984 40.9682 29.0828 40.9682C36.377 40.9682 42.3816 38.9513 43.3327 33.5077C43.8244 30.688 43.4536 28.8408 43.2924 28.1424C41.5917 21.3085 26.2862 19.2655 25.1496 15.4471C24.9561 14.7944 25.0125 14.096 25.1093 13.724C25.3914 12.6861 26.27 11.5374 28.7926 11.5374C31.1462 11.5374 32.5404 12.7188 32.5404 14.5007V16.5176H42.5911V14.2266C42.5911 7.11202 34.7085 6.00244 29.0021 6.00244C21.8288 6.00244 15.9693 7.92143 14.8973 13.2345C14.6072 14.7031 14.5669 16.0085 14.986 17.6468C16.7512 24.311 31.0655 26.2431 33.1449 30.4726Z" fill="#034EA2"/>
</svg>
