<svg width="44" height="67" viewBox="0 0 44 67" fill="none" xmlns="http://www.w3.org/2000/svg">
<path d="M35.3333 22.0605C35.3333 16.7401 33.9287 11.6377 31.428 7.87559C28.9276 4.1135 25.5362 2 22 2C18.4638 2 15.0724 4.1135 12.5719 7.87559C10.0714 11.6377 8.66667 16.7401 8.66667 22.0605C8.66667 45.4645 2 52.1512 2 52.1512H42C42 52.1512 35.3333 45.4645 35.3333 22.0605Z" stroke="#919191" stroke-width="3" stroke-linecap="round" stroke-linejoin="round"/>
<path d="M25.8446 61.5544C25.454 62.5045 24.8933 63.2931 24.2184 63.841C23.5438 64.3892 22.7789 64.6779 22.0002 64.6779C21.2215 64.6779 20.4566 64.3892 19.782 63.841C19.1073 63.2931 18.5464 62.5045 18.1558 61.5544" stroke="#919191" stroke-width="3" stroke-linecap="round" stroke-linejoin="round"/>
</svg>
