<svg width="44" height="65" viewBox="0 0 44 65" fill="none" xmlns="http://www.w3.org/2000/svg">
<path d="M22 2.03115C10.9543 2.03115 2 15.6021 2 32.3427C2 49.0831 10.9543 62.6542 22 62.6542C33.0456 62.6542 42 49.0831 42 32.3427C42 15.6021 33.0456 2.03115 22 2.03115Z" stroke="#919191" stroke-width="3" stroke-linecap="round" stroke-linejoin="round"/>
<path d="M6.54199 51.5774C6.54199 51.5774 11 42.9517 22 42.9517C33 42.9517 37.4582 51.5774 37.4582 51.5774" stroke="#919191" stroke-width="3" stroke-linecap="round" stroke-linejoin="round"/>
<path d="M22 32.3427C25.3138 32.3427 28 28.2715 28 23.2492C28 18.227 25.3138 14.1558 22 14.1558C18.6862 14.1558 16 18.227 16 23.2492C16 28.2715 18.6862 32.3427 22 32.3427Z" stroke="#919191" stroke-width="3" stroke-linecap="round" stroke-linejoin="round"/>
</svg>
