<svg width="62" height="53" viewBox="0 0 62 53" fill="none" xmlns="http://www.w3.org/2000/svg">
<path d="M34.6964 50.844C33.3488 52.5378 30.4611 52.7797 28.151 51.4086L2.16224 36.0839C0.429651 35.0354 -0.147878 33.019 1.00718 31.5672L23.8196 2.28898C24.9746 0.837168 27.4772 0.272575 29.4986 0.99848L58.9526 11.8871C61.5514 12.8549 62.7065 15.0326 61.3589 16.7264L34.6964 50.844Z" fill="#D3976E"/>
<path d="M35.8933 42.0803C32.8304 45.9995 27.3527 47.0719 23.0381 44.5968L13.7107 39.2462C8.42927 36.2165 7.05831 29.21 10.8084 24.4131L22.7329 9.15991C25.4376 5.70019 30.083 4.4099 34.1845 5.97914L44.5806 9.95667C50.8622 12.36 53.028 20.1547 48.8866 25.4541L35.8933 42.0803Z" fill="white"/>
<path d="M47.4982 12.6123C47.1132 13.0963 46.2469 13.2576 45.4769 12.935L34.3113 8.49887C33.6375 8.2569 33.445 7.6923 33.83 7.20837L35.5626 4.95C35.9476 4.46606 36.7177 4.30475 37.3914 4.54671L48.8458 8.82149C49.239 8.94504 49.4816 9.17373 49.5864 9.43241C49.7843 9.92061 49.3499 10.3957 49.0122 10.8L47.4982 12.6123Z" fill="#94989B"/>
<path d="M47.036 7.512C46.052 8.77051 44.3632 9.2417 42.8698 8.67439L40.8787 7.91806C39.5399 7.40947 39.0896 5.74074 39.991 4.62773C40.376 4.14379 41.146 3.98248 41.8198 4.22445L46.6325 5.99888C47.3063 6.24085 47.5951 6.8861 47.2101 7.28938L47.036 7.512Z" fill="#333333"/>
<path d="M46.1879 21.7056C45.9963 21.9554 45.6592 22.0425 45.3705 21.9169L31.5629 15.9094C31.2012 15.752 31.0872 15.2944 31.3328 14.9857C31.5003 14.7752 31.7875 14.7019 32.0354 14.8064L45.9104 20.6567C46.324 20.8311 46.4612 21.3494 46.1879 21.7056ZM26.0333 14.9523C25.7673 15.0637 25.59 14.7349 25.4769 14.4695L24.6858 12.6132C24.6228 12.5077 24.6835 12.4021 24.7869 12.3417C24.8998 12.2758 25.039 12.2771 25.167 12.2503L25.2125 12.2408C25.3103 12.2203 25.4276 12.2072 25.5252 12.2285C25.7601 12.2795 25.8873 12.4882 25.9762 12.7115L26.2603 13.4257C26.3014 13.5292 26.3564 13.6606 26.4609 13.6988C26.6346 13.7622 26.7921 13.6225 26.9599 13.5449L29.4985 12.3713C29.691 12.2906 29.8835 12.2906 29.9798 12.4519L30.1723 12.6939C30.2685 12.8552 30.2685 13.0165 30.076 13.0972L26.0333 14.9523Z" fill="#83BF4F"/>
<path d="M41.275 28.0306C41.0847 28.261 40.763 28.3341 40.4919 28.2087L26.9031 21.9238C26.5117 21.7428 26.3975 21.2405 26.6722 20.908C26.8625 20.6777 27.1841 20.6046 27.4553 20.73L41.044 27.0148C41.4354 27.1958 41.5496 27.6982 41.275 28.0306ZM24.3444 20.5263C23.7565 21.2744 22.727 21.5121 21.8706 21.0975L21.2457 20.795C20.092 20.2364 19.7455 18.7572 20.5311 17.7444C21.104 17.0059 22.1093 16.7579 22.9599 17.1453L23.5918 17.4331C24.7856 17.9767 25.155 19.4949 24.3444 20.5263ZM36.3776 34.3077C36.1818 34.5448 35.8482 34.6154 35.5731 34.4779L22.2441 27.821C21.8738 27.636 21.7808 27.1495 22.0569 26.841C22.2448 26.631 22.5497 26.5721 22.8024 26.6969L36.1609 33.2945C36.543 33.4832 36.6491 33.9791 36.3776 34.3077ZM19.7544 26.3758C19.1522 27.1421 18.0911 27.3737 17.2244 26.928L16.6527 26.634C15.5245 26.0539 15.2005 24.5916 15.978 23.5892C16.5649 22.8327 17.601 22.59 18.4627 23.0072L19.0413 23.2874C20.2103 23.8533 20.5569 25.3547 19.7544 26.3758ZM31.4779 40.5803C31.2824 40.8669 30.9021 40.9598 30.5966 40.7954L17.5424 33.7739C17.1969 33.5881 17.0958 33.1397 17.3279 32.8236C17.5177 32.5653 17.8683 32.4853 18.1512 32.6359L31.2363 39.5999C31.5927 39.7896 31.7053 40.2468 31.4779 40.5803ZM15.2568 32.1781C14.6463 32.9848 13.536 33.2205 12.6504 32.7314L12.0343 32.3911C10.9435 31.7887 10.6481 30.3549 11.4118 29.3703C12.0177 28.5892 13.0983 28.3582 13.9706 28.8234L14.5916 29.1545C15.696 29.7434 16.012 31.1801 15.2568 32.1781Z" fill="#B0BDC6"/>
</svg>
