<svg width="40" height="32" viewBox="0 0 40 32" fill="none" xmlns="http://www.w3.org/2000/svg">
<path d="M40 4.13322V25.2525C40 26.9755 38.4209 28.5563 36.482 28.7695L35.8624 28.8405C32.5843 29.2313 27.967 30.4391 24.2492 31.8246C22.95 32.3041 21.5108 31.4338 21.5108 30.1727V5.46538C21.5108 4.80818 21.9306 4.20426 22.5902 3.88454C26.248 2.12608 31.7848 0.563004 35.5426 0.278809H35.6625C38.0611 0.278809 40 2.00175 40 4.13322Z" fill="#64686C"/>
<path d="M17.4298 3.88454C13.7719 2.12608 8.23517 0.563004 4.47738 0.278809H4.33746C1.93886 0.278809 0 2.00175 0 4.13322V25.2525C0 26.9755 1.57907 28.5563 3.51794 28.7695L4.13758 28.8405C7.41565 29.2313 12.0329 30.4391 15.7508 31.8246C17.05 32.3041 18.4892 31.4338 18.4892 30.1727V5.46538C18.4892 4.79042 18.0894 4.20426 17.4298 3.88454ZM6.01647 9.2665H10.5138C11.3334 9.2665 12.013 9.87042 12.013 10.5987C12.013 11.3447 11.3334 11.9308 10.5138 11.9308H6.01647C5.19695 11.9308 4.51735 11.3447 4.51735 10.5987C4.51735 9.87042 5.19695 9.2665 6.01647 9.2665ZM12.013 17.2595H6.01647C5.19695 17.2595 4.51735 16.6734 4.51735 15.9274C4.51735 15.1991 5.19695 14.5952 6.01647 14.5952H12.013C12.8325 14.5952 13.5121 15.1991 13.5121 15.9274C13.5121 16.6734 12.8325 17.2595 12.013 17.2595Z" fill="#64686C"/>
</svg>
