<svg width="37" height="36" viewBox="0 0 37 36" fill="none" xmlns="http://www.w3.org/2000/svg">
<path d="M6.17151 30.4005C5.02725 30.4005 3.95801 30.0503 3.18892 29.4002C2.21348 28.5834 1.74452 27.3499 1.91334 26.0163L2.60741 20.6154C2.73872 19.5986 3.43278 18.2484 4.23939 17.5149L19.6401 3.02934C23.4856 -0.587911 27.4999 -0.687927 31.5705 2.72929C35.641 6.14651 35.7536 9.71376 31.9081 13.331L16.5074 27.8166C15.7196 28.5667 14.2564 29.2668 13.1121 29.4337L7.07192 30.3503C6.75302 30.367 6.47165 30.4005 6.17151 30.4005ZM25.6616 2.71263C24.2172 2.71263 22.9603 3.51276 21.6848 4.71295L6.28406 19.2154C5.90889 19.5654 5.47745 20.3989 5.40242 20.8823L4.70835 26.283C4.63332 26.8331 4.78339 27.2832 5.12104 27.5666C5.45869 27.8499 5.96517 27.95 6.5842 27.8666L12.6244 26.95C13.1684 26.8666 14.0688 26.4331 14.444 26.083L29.8447 11.5974C32.1707 9.39704 33.0149 7.36338 29.6196 4.52959C28.1189 3.24605 26.8246 2.71263 25.6616 2.71263Z" fill="#64686C"/>
<path d="M28.3073 16.1144C28.2698 16.1144 28.2135 16.1144 28.176 16.1144C22.3233 15.5976 17.615 11.6471 16.7146 6.47957C16.602 5.79613 17.1272 5.16269 17.8963 5.046C18.6654 4.94599 19.3782 5.41273 19.5096 6.09617C20.2224 10.1302 23.899 13.2307 28.4761 13.6307C29.2452 13.6974 29.8079 14.3142 29.7329 14.9975C29.6391 15.631 29.0201 16.1144 28.3073 16.1144Z" fill="#64686C"/>
<path d="M35.1721 35.7846H1.40688C0.637787 35.7846 0 35.2178 0 34.5344C0 33.8509 0.637787 33.2841 1.40688 33.2841H35.1721C35.9412 33.2841 36.579 33.8509 36.579 34.5344C36.579 35.2178 35.9412 35.7846 35.1721 35.7846Z" fill="#64686C"/>
</svg>
