<svg width="40" height="36" viewBox="0 0 40 36" fill="none" xmlns="http://www.w3.org/2000/svg">
<path d="M28.3941 0.000488281H11.6258C4.34216 0.000488281 0 3.85908 0 10.3315V25.2147C0 31.7049 4.34216 35.5635 11.6258 35.5635H28.3741C35.6578 35.5635 39.9999 31.7049 39.9999 25.2325V10.3315C40.0199 3.85908 35.6778 0.000488281 28.3941 0.000488281ZM13.0065 7.78879C15.0675 7.78879 16.7684 9.28244 16.7684 11.1317C16.7684 12.981 15.0875 14.4746 13.0065 14.4746C10.9254 14.4746 9.24461 12.9454 9.24461 11.1139C9.24461 9.28244 10.9455 7.78879 13.0065 7.78879ZM20.01 30.3713C14.6273 30.3713 10.2451 26.4772 10.2451 21.6939C10.2451 20.4492 11.3857 19.4179 12.7864 19.4179H27.1936C28.5942 19.4179 29.7348 20.4314 29.7348 21.6939C29.7748 26.4772 25.3927 30.3713 20.01 30.3713ZM27.0135 14.4391C24.9524 14.4391 23.2516 12.9454 23.2516 11.0961C23.2516 9.24687 24.9324 7.75323 27.0135 7.75323C29.0945 7.75323 30.7753 9.24687 30.7753 11.0961C30.7753 12.9454 29.0745 14.4391 27.0135 14.4391Z" fill="#64686C"/>
</svg>
