<svg width="40" height="42" viewBox="0 0 40 42" fill="none" xmlns="http://www.w3.org/2000/svg">
<path d="M20 0C8.98 0 0 9.21026 0 20.5128C0 31.8154 8.98 41.0256 20 41.0256C31.02 41.0256 40 31.8154 40 20.5128C40 9.21026 31.02 0 20 0ZM18.5 12.3077C18.5 11.4667 19.18 10.7692 20 10.7692C20.82 10.7692 21.5 11.4667 21.5 12.3077V22.5641C21.5 23.4051 20.82 24.1026 20 24.1026C19.18 24.1026 18.5 23.4051 18.5 22.5641V12.3077ZM21.84 29.4974C21.74 29.7641 21.6 29.9692 21.42 30.1744C21.22 30.359 21 30.5026 20.76 30.6051C20.52 30.7077 20.26 30.7692 20 30.7692C19.74 30.7692 19.48 30.7077 19.24 30.6051C19 30.5026 18.78 30.359 18.58 30.1744C18.4 29.9692 18.26 29.7641 18.16 29.4974C18.06 29.2513 18 28.9846 18 28.7179C18 28.4513 18.06 28.1846 18.16 27.9385C18.26 27.6923 18.4 27.4667 18.58 27.2615C18.78 27.0769 19 26.9333 19.24 26.8308C19.72 26.6256 20.28 26.6256 20.76 26.8308C21 26.9333 21.22 27.0769 21.42 27.2615C21.6 27.4667 21.74 27.6923 21.84 27.9385C21.94 28.1846 22 28.4513 22 28.7179C22 28.9846 21.94 29.2513 21.84 29.4974Z" fill="#64686C"/>
</svg>
