<svg width="40" height="36" viewBox="0 0 40 36" fill="none" xmlns="http://www.w3.org/2000/svg">
<path d="M32 0H8C3.58 0 0 3.56 0 7.94V28.06C0 32.44 3.58 36 8 36H32C36.42 36 40 32.44 40 28.06V7.94C40 3.56 36.42 0 32 0ZM13 8.34C15.54 8.34 17.62 10.42 17.62 12.96C17.62 15.5 15.54 17.58 13 17.58C10.46 17.58 8.38 15.5 8.38 12.96C8.38 10.42 10.46 8.34 13 8.34ZM20.74 27.32C20.56 27.52 20.28 27.64 20 27.64H6C5.72 27.64 5.44 27.52 5.26 27.32C5.08 27.12 4.98 26.84 5 26.56C5.34 23.2 8.02 20.54 11.38 20.22C12.44 20.12 13.54 20.12 14.6 20.22C17.96 20.54 20.66 23.2 20.98 26.56C21.02 26.84 20.92 27.12 20.74 27.32ZM34 27.5H30C29.18 27.5 28.5 26.82 28.5 26C28.5 25.18 29.18 24.5 30 24.5H34C34.82 24.5 35.5 25.18 35.5 26C35.5 26.82 34.82 27.5 34 27.5ZM34 19.5H26C25.18 19.5 24.5 18.82 24.5 18C24.5 17.18 25.18 16.5 26 16.5H34C34.82 16.5 35.5 17.18 35.5 18C35.5 18.82 34.82 19.5 34 19.5ZM34 11.5H24C23.18 11.5 22.5 10.82 22.5 10C22.5 9.18 23.18 8.5 24 8.5H34C34.82 8.5 35.5 9.18 35.5 10C35.5 10.82 34.82 11.5 34 11.5Z" fill="#64686C"/>
</svg>
