<svg width="45" height="41" viewBox="0 0 45 41" fill="none" xmlns="http://www.w3.org/2000/svg">
<path d="M45 20.5274C45 9.51061 34.8975 0.533203 22.5 0.533203C10.1025 0.533203 0 9.51061 0 20.5274C0 26.3258 2.8125 31.5443 7.2675 35.2032C7.2675 35.2232 7.2675 35.2232 7.245 35.2432C7.47 35.4431 7.74 35.6031 7.965 35.783C8.1 35.883 8.2125 35.983 8.3475 36.0629C8.7525 36.3629 9.2025 36.6428 9.63 36.9227C9.7875 37.0227 9.9225 37.1026 10.08 37.2026C10.5075 37.4625 10.9575 37.7025 11.43 37.9224C11.5875 38.0024 11.7675 38.1024 11.925 38.1823C12.375 38.4023 12.8475 38.6022 13.3425 38.7822C13.5225 38.8621 13.7025 38.9421 13.8825 39.0021C14.3775 39.182 14.8725 39.342 15.3675 39.482C15.5475 39.5419 15.7275 39.6019 15.9075 39.6419C16.4475 39.7819 16.9875 39.9018 17.5275 40.0218C17.685 40.0618 17.8425 40.1018 18.0225 40.1218C18.6525 40.2417 19.2825 40.3217 19.935 40.3817C20.025 40.3817 20.115 40.4017 20.205 40.4217C20.97 40.4817 21.735 40.5217 22.5 40.5217C23.265 40.5217 24.03 40.4817 24.7725 40.4217C24.8625 40.4217 24.9525 40.4017 25.0425 40.3817C25.695 40.3217 26.325 40.2417 26.955 40.1218C27.1125 40.1018 27.27 40.0418 27.45 40.0218C27.99 39.9018 28.5525 39.8019 29.07 39.6419C29.25 39.5819 29.43 39.5219 29.61 39.482C30.105 39.322 30.6225 39.182 31.095 39.0021C31.275 38.9421 31.455 38.8621 31.635 38.7822C32.1075 38.6022 32.58 38.4023 33.0525 38.1823C33.2325 38.1024 33.39 38.0024 33.5475 37.9224C33.9975 37.6825 34.4475 37.4625 34.8975 37.2026C35.055 37.1226 35.19 37.0227 35.3475 36.9227C35.7975 36.6428 36.225 36.3629 36.63 36.0629C36.765 35.963 36.8775 35.863 37.0125 35.783C37.26 35.6031 37.5075 35.4231 37.7325 35.2432C37.7325 35.2232 37.7325 35.2232 37.71 35.2032C42.1875 31.5443 45 26.3258 45 20.5274ZM33.615 30.4646C27.5175 26.8256 17.5275 26.8256 11.385 30.4646C10.395 31.0444 9.585 31.7242 8.91 32.464C5.49 29.3849 3.375 25.1661 3.375 20.5274C3.375 11.1501 11.9475 3.53234 22.5 3.53234C33.0525 3.53234 41.625 11.1501 41.625 20.5274C41.625 25.1661 39.51 29.3849 36.09 32.464C35.4375 31.7242 34.605 31.0444 33.615 30.4646Z" fill="#64686C"/>
<path d="M22.5 10.3897C17.8425 10.3897 14.0625 13.7487 14.0625 17.8876C14.0625 21.9464 17.64 25.2454 22.3875 25.3654H22.59H22.7475H22.7925C27.3375 25.2254 30.915 21.9464 30.9375 17.8876C30.9375 13.7487 27.1575 10.3897 22.5 10.3897Z" fill="#64686C"/>
</svg>
