<svg width="40" height="36" viewBox="0 0 40 36" fill="none" xmlns="http://www.w3.org/2000/svg">
<path d="M28.3941 0.297363H11.6258C4.34216 0.297363 0 4.15595 0 10.6284V25.5115C0 32.0018 4.34216 35.8604 11.6258 35.8604H28.3741C35.6578 35.8604 39.9999 32.0018 39.9999 25.5293V10.6284C40.0199 4.15595 35.6778 0.297363 28.3941 0.297363ZM29.5747 13.9891L18.2291 24.0712C17.9489 24.3202 17.5688 24.4624 17.1686 24.4624C16.7684 24.4624 16.3882 24.3202 16.108 24.0712L10.4452 19.0391C9.86491 18.5234 9.86491 17.6699 10.4452 17.1542C11.0255 16.6386 11.986 16.6386 12.5663 17.1542L17.1686 21.244L27.4537 12.1043C28.034 11.5886 28.9944 11.5886 29.5747 12.1043C30.155 12.6199 30.155 13.4557 29.5747 13.9891Z" fill="#64686C"/>
</svg>
