<svg width="84" height="73" viewBox="0 0 84 73" fill="none" xmlns="http://www.w3.org/2000/svg">
<path d="M71.4421 45.1992L80.9367 53.8519L39.1866 72.182C39.1866 72.182 33.7239 74.5729 31.1227 70.8158C20.7176 56.0151 71.4421 45.1992 71.4421 45.1992Z" fill="#256382"/>
<path d="M38.0175 61.3655C38.0175 61.3655 30.0837 63.984 31.5144 68.8796C33.0751 74.0029 39.4482 70.929 39.4482 70.929L79.1174 53.8513C79.1174 53.8513 76.9063 48.3864 80.9383 44.7432L38.0175 61.3655Z" fill="#D9E3E8"/>
<path d="M44.7798 10.1328L82.7581 44.4021L37.8865 60.6828L9.14258 19.0132L44.7798 10.1328Z" fill="#42ADE2"/>
<path d="M78.9866 48.5012L52.4537 58.5201L78.4663 47.4766L78.9866 48.5012ZM78.5964 51.4614L50.3727 62.2772L78.0761 50.4367L78.5964 51.4614ZM78.8565 53.1691L42.8291 67.6282L78.3363 52.1445L78.8565 53.1691Z" fill="#94989B"/>
<path d="M30.9933 70.7013C26.5712 62.1625 37.8867 60.6824 37.8867 60.6824L9.14279 19.0128C9.14279 19.0128 2.63965 18.899 2.63965 25.1608C2.63965 27.7794 3.94028 29.7149 3.94028 29.7149L30.9933 70.7013Z" fill="#428BC1"/>
<path d="M11.3549 36.6602L1.86035 45.3129L43.6105 63.6429C43.6105 63.6429 49.0732 66.0338 51.6744 62.2767C62.0794 47.476 11.3549 36.6602 11.3549 36.6602Z" fill="#547725"/>
<path d="M44.651 52.8264C44.651 52.8264 52.5848 55.445 51.1542 60.3406C49.5934 65.4639 43.3504 62.3899 43.3504 62.3899L3.68123 45.3122C3.68123 45.3122 5.8923 39.8473 1.86035 36.2041L44.651 52.8264Z" fill="#D9E3E8"/>
<path d="M38.0164 1.59375L0.0380859 35.863L44.9098 52.1437L73.6536 10.4742L38.0164 1.59375Z" fill="#83BF4F"/>
<path d="M4.19994 38.9375L30.2125 49.9811L3.67969 39.9622L4.19994 38.9375ZM4.72019 41.8976L32.2935 53.7382L4.06988 42.9223L4.72019 41.8976ZM4.46006 43.6054L39.8372 59.0892L3.80975 44.6301L4.46006 43.6054Z" fill="#94989B"/>
<path d="M51.8025 62.1623C56.2246 53.6234 44.9092 52.1433 44.9092 52.1433L73.6531 10.4738C73.6531 10.4738 80.1562 10.3599 80.1562 16.6217C80.1562 19.2403 78.8556 21.1758 78.8556 21.1758L51.8025 62.1623Z" fill="#699635"/>
<path d="M73.7851 29.6016L81.7189 36.888L46.4719 52.258C46.4719 52.258 41.7896 54.1934 39.5786 51.1195C30.9944 38.7097 73.7851 29.6016 73.7851 29.6016Z" fill="#962C2C"/>
<path d="M45.5594 43.2635C45.5594 43.2635 38.7962 45.4266 40.0968 49.6391C41.3974 53.9655 46.73 51.3469 46.73 51.3469L80.1561 36.8878C80.1561 36.8878 78.3353 32.3338 81.7169 29.2598L45.5594 43.2635Z" fill="#D9E3E8"/>
<path d="M51.284 0L83.2794 28.9182L45.4311 42.6942L21.1094 7.51418L51.284 0Z" fill="#ED4C5C"/>
<path d="M52.1929 6.60352L58.4359 12.6376L35.4148 20.2657L29.9521 12.5238L52.1929 6.60352Z" fill="white"/>
<path d="M80.1574 32.4475L57.7866 40.7587L79.6371 31.4229L80.1574 32.4475ZM79.8972 34.9522L55.9657 43.9465L79.377 33.9276L79.8972 34.9522ZM80.1574 36.3185L49.7227 48.5005L79.507 35.2938L80.1574 36.3185Z" fill="#94989B"/>
<path d="M39.7083 51.1189C36.0665 43.9463 45.5611 42.6939 45.5611 42.6939L21.1093 7.51387C21.1093 7.51387 15.5166 7.40002 15.5166 12.6372C15.5166 14.8004 16.5571 16.5081 16.5571 16.5081L39.7083 51.1189Z" fill="#C94747"/>
</svg>
