<svg width="87" height="73" viewBox="0 0 87 73" fill="none" xmlns="http://www.w3.org/2000/svg">
<path d="M86.5647 67.638C86.5647 70.1563 83.9596 72.1949 80.5883 72.1949H11.1707C7.95265 72.1949 5.19434 70.1563 5.19434 67.638V14.5139C5.19434 11.9957 7.79941 9.95703 11.1707 9.95703H80.7415C83.9596 9.95703 86.7179 11.9957 86.7179 14.5139V67.638H86.5647Z" fill="#93A2AA"/>
<path d="M82.1203 14.5139C82.1203 11.9957 79.5152 9.95703 76.144 9.95703H6.72635C3.50832 9.95703 0.75 11.9957 0.75 14.5139V40.0567H82.1203V14.5139Z" fill="#ED4C5C"/>
<path d="M0.75 39.9365V67.6378C0.75 70.1561 3.35508 72.1947 6.72635 72.1947H76.2972C79.5152 72.1947 82.2736 70.1561 82.2736 67.6378V39.9365H0.75Z" fill="#D9E3E8"/>
<path d="M14.6949 21.5895C17.1493 21.5895 19.1389 20.0862 19.1389 18.2318C19.1389 16.3773 17.1493 14.874 14.6949 14.874C12.2406 14.874 10.251 16.3773 10.251 18.2318C10.251 20.0862 12.2406 21.5895 14.6949 21.5895Z" fill="#3E4347"/>
<path d="M32.6246 21.5895C35.0789 21.5895 37.0686 20.0862 37.0686 18.2318C37.0686 16.3773 35.0789 14.874 32.6246 14.874C30.1703 14.874 28.1807 16.3773 28.1807 18.2318C28.1807 20.0862 30.1703 21.5895 32.6246 21.5895Z" fill="#3E4347"/>
<path d="M50.2457 21.5895C52.7 21.5895 54.6897 20.0862 54.6897 18.2318C54.6897 16.3773 52.7 14.874 50.2457 14.874C47.7914 14.874 45.8018 16.3773 45.8018 18.2318C45.8018 20.0862 47.7914 21.5895 50.2457 21.5895Z" fill="#3E4347"/>
<path d="M68.0221 21.5895C70.4764 21.5895 72.466 20.0862 72.466 18.2318C72.466 16.3773 70.4764 14.874 68.0221 14.874C65.5678 14.874 63.5781 16.3773 63.5781 18.2318C63.5781 20.0862 65.5678 21.5895 68.0221 21.5895Z" fill="#3E4347"/>
<path d="M56.8362 3.36209C55.7635 1.92306 54.2311 0.36412 51.3196 0.244201C48.5613 0.124282 48.408 2.7625 51.1663 2.88242C51.1663 2.88242 51.7793 3.24217 51.6261 3.12225C52.239 3.60193 52.5455 4.20152 53.0052 4.80112C53.9247 6.47998 54.2311 8.27876 54.2311 10.0775H58.6751C58.5219 7.79909 58.0621 5.40071 56.8362 3.36209ZM51.1663 2.88242C51.3196 2.88242 51.3196 2.88242 51.1663 2.88242V2.88242ZM39.0604 3.36209C38.141 1.92306 36.4553 0.36412 33.5438 0.244201C30.7855 0.124282 30.6322 2.7625 33.3905 2.88242C33.3905 2.88242 34.0035 3.24217 33.8503 3.12225C34.4632 3.60193 34.7697 4.20152 35.2294 4.80112C36.1488 6.47998 36.4553 8.27876 36.4553 10.0775H40.8993C40.746 7.79909 40.4396 5.40071 39.0604 3.36209ZM21.2846 3.36209C20.3651 1.92306 18.6795 0.36412 15.768 0.244201C13.0096 0.124282 13.0096 2.7625 15.768 2.88242C15.768 2.88242 16.3809 3.24217 16.2277 3.12225C16.8406 3.60193 17.1471 4.20152 17.6068 4.80112C18.5263 6.47998 18.8328 8.27876 18.8328 10.0775H23.2767C23.1235 7.79909 22.6637 5.40071 21.2846 3.36209ZM74.4588 3.36209C73.5393 1.92306 71.8537 0.36412 68.9422 0.244201C66.1838 0.124282 66.0306 2.7625 68.7889 2.88242C68.7889 2.88242 69.4019 3.24217 69.2486 3.12225C69.8616 3.60193 70.1681 4.20152 70.6278 4.80112C71.5472 6.47998 71.8537 8.27876 71.8537 10.0775H76.2977C76.2977 7.79909 75.8379 5.40071 74.4588 3.36209Z" fill="#3E4347"/>
<path d="M50.2462 17.0324C49.7864 17.0324 50.8591 17.1524 50.2462 17.0324C50.7059 17.1524 49.6332 16.6727 49.9397 16.7926C49.3267 16.3129 49.0202 15.7133 48.7138 15.1137C47.7943 13.4349 47.4879 11.6361 47.4879 9.83731C47.4879 8.03853 47.7943 6.23975 48.7138 4.56088C49.0202 3.96129 49.3267 3.60153 49.9397 3.00194C50.0929 2.88202 50.0929 2.88202 50.5526 2.64218C50.0929 2.88202 50.5526 2.64218 50.7059 2.64218C50.3994 2.7621 50.3994 2.7621 50.5526 2.64218H50.3994C53.311 2.52226 53.311 -0.115952 50.3994 0.00396637C47.4879 0.123885 45.9555 1.68283 44.8828 3.12186C43.5036 5.16048 43.1971 7.55885 43.1971 9.71739C43.1971 11.8759 43.6569 14.2743 44.8828 16.3129C45.8022 17.752 47.4879 19.3109 50.3994 19.4308C53.1577 19.7906 53.1577 17.1524 50.2462 17.0324ZM32.6236 17.0324C32.0106 17.0324 33.0833 17.1524 32.6236 17.0324C33.0833 17.1524 32.0106 16.6727 32.3171 16.7926C31.7042 16.3129 31.3977 15.7133 30.938 15.1137C30.0185 13.4349 29.712 11.6361 29.712 9.83731C29.712 8.03853 30.0185 6.23975 30.938 4.56088C31.2444 3.96129 31.5509 3.60153 32.1639 3.00194C32.1639 2.88202 32.3171 2.88202 32.7768 2.64218C32.3171 2.88202 32.7768 2.64218 32.9301 2.64218C32.6236 2.7621 32.6236 2.7621 32.7768 2.64218H32.6236C35.5351 2.52226 35.5351 -0.115952 32.6236 0.00396637C29.712 0.123885 28.1796 1.68283 27.107 3.12186C25.7278 5.16048 25.4213 7.55885 25.4213 9.71739C25.4213 11.8759 25.881 14.2743 27.107 16.3129C28.0264 17.752 29.712 19.3109 32.6236 19.4308C35.3819 19.7906 35.3819 17.1524 32.6236 17.0324ZM14.8478 17.0324C14.3881 17.0324 15.3075 17.1524 14.8478 17.0324C15.3075 17.1524 14.2348 16.6727 14.5413 16.7926C13.9283 16.3129 13.6219 15.7133 13.1621 15.1137C12.2427 13.4349 11.9362 11.6361 11.9362 9.83731C11.9362 8.03853 12.2427 6.23975 13.1621 4.56088C13.4686 3.96129 13.7751 3.60153 14.3881 3.00194C14.3881 2.88202 14.5413 2.88202 15.001 2.64218C14.5413 2.88202 15.001 2.64218 15.1543 2.64218C14.8478 2.7621 14.8478 2.7621 15.001 2.64218H14.8478C17.7593 2.52226 17.7593 -0.115952 14.8478 0.00396637C11.9362 0.123885 10.4038 1.68283 9.33115 3.12186C7.95199 5.16048 7.64551 7.55885 7.64551 9.71739C7.64551 11.8759 8.10523 14.2743 9.33115 16.3129C10.2506 17.752 11.9362 19.3109 14.8478 19.4308C17.7593 19.7906 17.7593 17.1524 14.8478 17.0324ZM68.022 17.0324C67.5623 17.0324 68.4817 17.1524 68.022 17.0324C68.4817 17.1524 67.409 16.6727 67.7155 16.7926C67.1025 16.3129 66.7961 15.7133 66.3363 15.1137C65.4169 13.4349 65.1104 11.6361 65.1104 9.83731C65.1104 8.03853 65.4169 6.23975 66.3363 4.56088C66.6428 3.96129 66.9493 3.60153 67.5623 3.00194C67.5623 2.88202 67.7155 2.88202 68.1752 2.64218C67.7155 2.88202 68.1752 2.64218 68.3285 2.64218C68.022 2.7621 68.022 2.7621 68.1752 2.64218H68.022C70.9335 2.52226 70.9335 -0.115952 68.022 0.00396637C65.1104 0.363723 63.578 1.92267 62.5053 3.36169C61.1262 5.40032 60.8197 7.79869 60.8197 9.95723C60.8197 12.1158 61.2794 14.5141 62.5053 16.5528C63.4248 17.9918 65.1104 19.5507 68.022 19.6707C70.9335 19.7906 70.9335 17.1524 68.022 17.0324Z" fill="#94989B"/>
<path d="M45.9563 9.957C45.9563 8.15822 46.2627 6.23952 47.1822 4.44074C47.6419 3.6013 48.5613 1.92244 50.247 1.92244C51.1664 1.92244 51.1664 1.08301 50.247 1.08301C48.1016 1.08301 47.0289 2.52203 46.2627 3.48138C44.8836 5.52001 44.5771 7.67855 44.5771 9.83709C44.5771 10.5566 45.9563 10.5566 45.9563 9.957ZM28.1804 9.957C28.1804 8.15822 28.4869 6.23952 29.4064 4.44074C29.8661 3.6013 30.7855 1.92244 32.4712 1.92244C33.3906 1.92244 33.3906 1.08301 32.4712 1.08301C30.3258 1.08301 29.2531 2.52203 28.4869 3.48138C27.1078 5.52001 26.8013 7.67855 26.8013 9.83709C26.9545 10.5566 28.1804 10.5566 28.1804 9.957ZM10.5579 9.957C10.5579 8.15822 10.8643 6.23952 11.7838 4.44074C12.2435 3.6013 13.1629 1.92244 14.8486 1.92244C15.768 1.92244 15.768 1.08301 14.8486 1.08301C12.7032 1.08301 11.6305 2.52203 10.8643 3.48138C9.48519 5.52001 9.17871 7.67855 9.17871 9.83709C9.17871 10.5566 10.5579 10.5566 10.5579 9.957ZM63.7321 9.957C63.7321 8.15822 64.0385 6.23952 64.958 4.44074C65.4177 3.6013 66.3371 1.92244 68.0228 1.92244C68.9422 1.92244 68.9422 1.08301 68.0228 1.08301C65.8774 1.08301 64.8047 2.52203 64.0385 3.48138C62.6594 5.52001 62.3529 7.67855 62.3529 9.83709C62.3529 10.5566 63.7321 10.5566 63.7321 9.957Z" fill="#D0D0D0"/>
<path d="M23.8889 31.9023V32.1422C23.8889 33.1015 24.0422 33.821 24.3487 34.1808C24.5019 34.5406 25.1149 34.7804 25.8811 34.7804C26.6472 34.7804 27.107 34.5406 27.4134 34.1808C27.5667 33.941 27.5667 33.4613 27.5667 32.8617V24.2275H30.938V32.7418C30.938 33.821 30.6315 34.6605 30.1718 35.2601C29.4056 36.3393 28.0264 36.819 25.8811 36.819C23.7357 36.819 22.5098 36.4593 21.7436 35.6198C20.9774 34.7804 20.6709 33.7011 20.6709 32.1422V31.9023H23.8889ZM34.4625 24.3475H37.8338V31.9023C37.8338 32.7418 37.987 33.3414 38.2935 33.7011C38.7532 34.4206 39.5194 34.7804 40.8986 34.7804C42.2777 34.7804 43.1971 34.4206 43.5036 33.7011C43.8101 33.3414 43.9633 32.7418 43.9633 31.9023V24.3475H47.3346V31.9023C47.3346 33.2215 47.0281 34.1808 46.5684 34.9003C45.4957 36.2194 43.6569 36.9389 40.8986 36.9389C38.1402 36.9389 36.1481 36.2194 35.2287 34.9003C34.769 34.1808 34.4625 33.1015 34.4625 31.9023V24.3475ZM50.7059 24.3475H54.0772V34.4206H62.1989V36.5792H50.7059V24.3475Z" fill="white"/>
<path d="M19.292 51.2088V47.8511C21.2841 47.7311 22.51 47.7311 23.2762 47.4913C24.5021 47.2515 25.4216 46.8917 26.1878 46.1722C26.6475 45.6925 27.1072 45.0929 27.4137 44.3734C27.5669 43.8937 27.7202 43.6539 27.7202 43.4141H32.7771V68.1173H26.4943V51.2088H19.292ZM63.5783 47.6112C62.6588 48.3307 61.4329 49.6498 59.7473 51.4486C58.0617 53.2474 56.6825 55.1661 55.6098 57.0848C54.6904 58.6438 53.9242 60.4425 53.3112 62.721C52.545 64.8795 52.2385 66.7982 52.2385 68.2373H45.9557C46.109 63.8003 47.9478 59.2434 51.4723 54.4466C53.7709 51.4486 55.6098 49.41 57.1422 48.2108H41.665L41.8182 43.8937H63.5783V47.6112Z" fill="#333333"/>
</svg>
