<svg width="93" height="82" viewBox="0 0 93 82" fill="none" xmlns="http://www.w3.org/2000/svg">
<path d="M90.6464 28.2664C93.1114 30.4242 93.5464 33.5974 91.8064 35.5013L48.8859 79.1646C46.2759 81.8301 41.7808 81.8301 38.7358 79.2915L2.19532 47.3056C-0.704717 44.7671 -0.704717 40.7054 2.34032 38.4207L52.0759 0.976849C54.251 -0.673217 57.876 -0.165505 60.341 1.99227L90.6464 28.2664Z" fill="#AFCDDB"/>
<path d="M73.6816 13.5431L18.2909 61.395L5.38574 50.0984L63.0965 4.27734L73.6816 13.5431Z" fill="#333333"/>
<path d="M71.6515 23.1895L32.791 58.0947L43.2311 67.2335L80.7866 31.1859L71.6515 23.1895Z" fill="white"/>
<path d="M49.467 54.9212C47.292 53.1442 48.597 49.8441 49.322 48.0671C50.6271 45.2747 51.9321 50.6056 51.9321 51.4941C52.2221 54.1596 51.7871 56.9521 51.0621 59.6175C50.6271 61.1407 50.047 62.5369 49.177 63.9331C48.742 64.8216 48.017 65.5832 47.147 66.0909C44.972 67.2332 43.667 66.0909 43.232 62.9177C43.522 61.9023 43.957 61.0138 44.827 60.2522C47.582 57.2059 51.9321 55.8097 55.1221 53.3981C55.4121 53.1442 54.9771 52.7634 54.6871 53.0173C50.9171 55.8097 43.087 58.0944 42.652 63.5523C42.362 67.1063 46.567 67.9948 48.742 65.964C51.6421 63.2985 52.3671 58.6021 52.6571 55.0481C52.8021 53.0173 53.3821 47.1786 49.902 46.5439C49.757 46.5439 49.612 46.5439 49.612 46.6709C48.162 48.8287 46.277 53.2711 49.177 55.5558C49.322 55.6828 49.757 55.1751 49.467 54.9212Z" fill="#4F5B60"/>
<path d="M54.2523 52.8908C57.2973 54.4139 58.1673 48.4483 57.7323 46.7982C57.7323 46.5443 57.2973 46.5443 57.1523 46.6713C55.5573 47.8136 55.2673 50.8599 56.5723 52.6369C56.7173 52.8908 57.0073 52.8908 57.1523 52.6369C58.1673 50.9868 58.7473 49.3368 59.4724 47.5598C59.7624 46.7982 60.4874 47.0521 61.0674 46.5443L64.5474 43.4981C65.9974 42.2288 66.4324 40.4518 67.7375 39.1825C69.4775 37.5324 71.0725 36.7709 71.9425 34.4862C72.0875 33.9785 72.0875 32.7092 71.0725 32.7092C69.0425 32.5822 67.3025 36.2632 70.0575 35.8824C73.2475 35.5016 76.1476 32.2015 78.1776 30.4245C78.4676 30.1706 78.0326 29.7898 77.7426 30.0437C76.7276 30.9322 75.5676 31.8207 74.5525 32.5822C73.6825 33.2169 72.8125 33.8515 71.7975 34.4862C71.3625 34.74 67.5925 36.2632 69.9125 33.8515C70.3475 34.1054 70.7825 34.3592 71.2175 34.74C71.0725 34.9939 70.9275 35.3747 70.7825 35.6285C70.4925 36.1362 70.0575 36.6439 69.6225 37.1517C68.8975 38.0402 67.5925 38.5479 66.7224 39.4364C65.5624 40.5787 65.1274 42.1019 63.9674 43.2442C63.3874 43.7519 60.6324 46.9251 59.6174 46.5443C59.4724 46.5443 59.3274 46.5443 59.3274 46.6713C59.0374 47.5598 58.7474 48.3213 58.3123 49.2098C58.1673 49.4637 56.8623 51.8753 56.8623 52.0023C56.2823 50.733 56.4273 49.2098 57.0073 48.0675C57.4423 48.7021 57.4423 49.4637 57.1523 50.0983C56.8623 51.6215 55.9923 52.51 54.5423 52.7638C54.1073 52.1292 53.8173 52.6369 54.2523 52.8908Z" fill="#4F5B60"/>
</svg>
