<svg width="88" height="64" viewBox="0 0 88 64" fill="none" xmlns="http://www.w3.org/2000/svg">
<path d="M86.9936 59.2121C86.9936 61.4167 84.3539 63.0964 80.9378 63.0964H10.5978C7.33696 63.0964 4.54199 61.3117 4.54199 59.2121V12.706C4.54199 10.5015 7.18169 8.7168 10.5978 8.7168H81.0931C84.3539 8.7168 87.1489 10.5015 87.1489 12.706V59.2121H86.9936Z" fill="#93A2AA"/>
<path d="M82.4897 59.2121C82.4897 61.4167 79.85 63.0964 76.4339 63.0964H6.09385C2.67778 63.2014 0.0380859 61.4167 0.0380859 59.2121V12.706C0.0380859 10.5015 2.67778 8.7168 6.09385 8.7168H76.5892C79.85 8.7168 82.645 10.5015 82.645 12.706V59.2121H82.4897Z" fill="#F0F4F5"/>
<path d="M75.0366 57.3221C65.0989 63.8309 47.0869 63.201 47.0869 63.201C47.0869 63.201 60.2854 60.5765 72.3969 50.9184C81.5582 43.6748 82.4899 34.8564 82.4899 34.8564C82.4899 34.8564 87.9245 48.8188 75.0366 57.3221Z" fill="#93A2AA"/>
<path d="M14.168 18.8994C16.655 18.8994 18.6711 17.5834 18.6711 15.9599C18.6711 14.3365 16.655 13.0205 14.168 13.0205C11.6811 13.0205 9.66504 14.3365 9.66504 15.9599C9.66504 17.5834 11.6811 18.8994 14.168 18.8994Z" fill="#3E4347"/>
<path d="M32.336 18.8994C34.823 18.8994 36.839 17.5834 36.839 15.9599C36.839 14.3365 34.823 13.0205 32.336 13.0205C29.8491 13.0205 27.833 14.3365 27.833 15.9599C27.833 17.5834 29.8491 18.8994 32.336 18.8994Z" fill="#3E4347"/>
<path d="M50.1925 18.8994C52.6794 18.8994 54.6955 17.5834 54.6955 15.9599C54.6955 14.3365 52.6794 13.0205 50.1925 13.0205C47.7055 13.0205 45.6895 14.3365 45.6895 15.9599C45.6895 17.5834 47.7055 18.8994 50.1925 18.8994Z" fill="#3E4347"/>
<path d="M68.2042 18.8994C70.6911 18.8994 72.7072 17.5834 72.7072 15.9599C72.7072 14.3365 70.6911 13.0205 68.2042 13.0205C65.7172 13.0205 63.7012 14.3365 63.7012 15.9599C63.7012 17.5834 65.7172 18.8994 68.2042 18.8994Z" fill="#3E4347"/>
<path d="M56.8694 2.94291C55.7825 1.68315 54.2297 0.318413 51.2795 0.213433C48.4845 0.108453 48.3292 2.41801 51.1242 2.52299C50.9689 2.52299 51.7453 2.83793 51.59 2.73295C52.2111 3.15287 52.5217 3.67777 52.9875 4.20267C53.9192 5.67239 54.2297 7.24709 54.2297 8.82178H58.7327C58.5774 6.82717 58.1116 4.72757 56.8694 2.94291ZM51.1242 2.52299C51.2795 2.52299 51.2795 2.52299 51.1242 2.52299V2.52299ZM38.8574 2.94291C37.9257 1.68315 36.2177 0.318413 33.2674 0.213433C30.4725 0.108453 30.3172 2.41801 33.1122 2.52299C32.9569 2.52299 33.7333 2.83793 33.578 2.73295C34.1991 3.15287 34.5096 3.67777 34.9755 4.20267C35.9071 5.67239 36.2177 7.24709 36.2177 8.82178H40.7207C40.5654 6.82717 40.2549 4.72757 38.8574 2.94291ZM20.8453 2.94291C19.9137 1.68315 18.2057 0.318413 15.2554 0.213433C12.4604 0.108453 12.4604 2.41801 15.2554 2.52299C15.1001 2.52299 15.8765 2.83793 15.7212 2.73295C16.3423 3.15287 16.6529 3.67777 17.1187 4.20267C18.0504 5.67239 18.3609 7.24709 18.3609 8.82178H22.8639C22.7087 6.82717 22.2428 4.72757 20.8453 2.94291ZM74.7262 2.94291C73.7945 1.68315 72.0865 0.318413 69.1362 0.213433C66.3413 0.108453 66.186 2.41801 68.9809 2.52299C68.9809 2.52299 69.6021 2.83793 69.4468 2.73295C70.0679 3.15287 70.3784 3.67777 70.8443 4.20267C71.7759 5.67239 72.0865 7.24709 72.0865 8.82178H76.5895C76.5895 6.82717 76.1236 4.72757 74.7262 2.94291Z" fill="#3E4347"/>
<path d="M50.1922 14.9106C49.7263 14.9106 50.8133 15.0156 50.1922 14.9106C50.658 15.0156 49.571 14.5957 49.8816 14.7007C49.2605 14.2807 48.9499 13.7558 48.4841 13.2309C47.5525 11.7612 47.2419 10.1865 47.2419 8.61182C47.2419 7.03713 47.5525 5.46243 48.4841 3.99271C48.7947 3.46781 49.1052 3.15287 49.7263 2.62797C49.7263 2.52299 49.8816 2.52299 50.3474 2.31303C49.8816 2.52299 50.3474 2.31303 50.5027 2.31303C50.1922 2.41801 50.1922 2.41801 50.3474 2.31303H50.1922C53.1424 2.20805 53.1424 -0.101508 50.1922 0.00347226C47.2419 0.108452 45.6891 1.47319 44.6022 2.73295C43.2047 4.51761 42.8942 6.61721 42.8942 8.50684C42.8942 10.3965 43.36 12.4961 44.6022 14.2807C45.5339 15.5405 47.2419 16.9052 50.1922 17.0102C53.1424 17.3252 53.1424 15.0156 50.1922 14.9106ZM32.3354 14.9106C31.7143 14.9106 32.8012 15.0156 32.3354 14.9106C32.8012 15.0156 31.7143 14.5957 32.0248 14.7007C31.4037 14.2807 31.0932 13.7558 30.6274 13.2309C29.6957 11.7612 29.3852 10.1865 29.3852 8.61182C29.3852 7.03713 29.6957 5.46243 30.6274 3.99271C30.9379 3.46781 31.2485 3.15287 31.8696 2.62797C31.8696 2.52299 32.0248 2.52299 32.4907 2.31303C32.0248 2.52299 32.4907 2.31303 32.646 2.31303C32.3354 2.41801 32.3354 2.41801 32.4907 2.31303H32.3354C35.2856 2.20805 35.2856 -0.101508 32.3354 0.00347226C29.3852 0.108452 27.8324 1.47319 26.7455 2.73295C25.348 4.51761 25.0374 6.61721 25.0374 8.50684C25.0374 10.3965 25.5033 12.4961 26.7455 14.2807C27.6771 15.5405 29.3852 16.9052 32.3354 17.0102C35.1304 17.3252 35.1304 15.0156 32.3354 14.9106ZM14.3234 14.9106C13.8575 14.9106 14.7892 15.0156 14.3234 14.9106C14.7892 15.0156 13.7023 14.5957 14.0128 14.7007C13.3917 14.2807 13.0812 13.7558 12.6153 13.2309C11.6837 11.7612 11.3731 10.1865 11.3731 8.61182C11.3731 7.03713 11.6837 5.46243 12.6153 3.99271C12.9259 3.46781 13.2364 3.15287 13.8575 2.62797C13.8575 2.52299 14.0128 2.52299 14.4786 2.31303C14.0128 2.52299 14.4786 2.31303 14.6339 2.31303C14.3234 2.41801 14.3234 2.41801 14.4786 2.31303H14.3234C17.2736 2.20805 17.2736 -0.101508 14.3234 0.00347226C11.3731 0.108452 9.82036 1.47319 8.73343 2.73295C7.33594 4.51761 7.02539 6.61721 7.02539 8.50684C7.02539 10.3965 7.49122 12.4961 8.73343 14.2807C9.66509 15.5405 11.3731 16.9052 14.3234 17.0102C17.2736 17.3252 17.2736 15.0156 14.3234 14.9106ZM68.2042 14.9106C67.7384 14.9106 68.67 15.0156 68.2042 14.9106C68.67 15.0156 67.5831 14.5957 67.8936 14.7007C67.2725 14.2807 66.962 13.7558 66.4961 13.2309C65.5645 11.7612 65.2539 10.1865 65.2539 8.61182C65.2539 7.03713 65.5645 5.46243 66.4961 3.99271C66.8067 3.46781 67.1172 3.15287 67.7383 2.62797C67.7383 2.52299 67.8936 2.52299 68.3595 2.31303C67.8936 2.52299 68.3595 2.31303 68.5147 2.31303C68.2042 2.41801 68.2042 2.41801 68.3595 2.31303H68.2042C71.1544 2.20805 71.1544 -0.101508 68.2042 0.00347226C65.2539 0.318412 63.7012 1.68315 62.6142 2.94291C61.2168 4.72757 60.9062 6.82717 60.9062 8.7168C60.9062 10.6064 61.372 12.706 62.6142 14.4907C63.5459 15.7505 65.2539 17.1152 68.2042 17.2202C71.1544 17.3252 71.1544 15.0156 68.2042 14.9106Z" fill="#94989B"/>
<path d="M7.33691 24.5684H73.9504V27.5078H7.33691V24.5684ZM7.33691 33.3867H73.9504V36.3261H7.33691V33.3867ZM7.33691 42.1H73.9504V45.0394H7.33691V42.1ZM40.566 50.9183H66.3418V53.8577H40.566V50.9183Z" fill="#7D8B91"/>
<path d="M82.4899 34.8564C82.4899 48.3989 67.5834 63.201 47.0869 63.201C47.0869 63.201 55.4718 60.0516 55.4718 48.6088C78.9185 48.6088 82.4899 34.8564 82.4899 34.8564Z" fill="#D7DADB"/>
</svg>
