<svg width="27" height="34" viewBox="0 0 27 34" fill="none" xmlns="http://www.w3.org/2000/svg">
<path d="M10.9287 31.1094C10.9287 32.3315 12.0677 33.3315 13.4597 33.3315C14.8518 33.3315 15.9908 32.3315 15.9908 31.1094H10.9287Z" fill="#616466"/>
<path d="M9.60059 27.665H17.3835V28.665H9.60059V27.665Z" fill="#616466"/>
<path d="M10.2334 29.7207H16.7508V30.7206H10.2334V29.7207Z" fill="#616466"/>
<path d="M8.96821 25.5541H17.8901C18.3963 23.1653 20.1047 20.8321 21.8764 18.3878C23.9645 15.5547 26.1159 12.6104 26.1159 9.77722C26.1159 4.38864 20.4211 0 13.4608 0C6.50047 0 0.805664 4.38864 0.805664 9.77722C0.805664 12.6104 2.95703 15.5547 4.98185 18.3878C6.75357 20.8321 8.46201 23.1653 8.96821 25.5541Z" fill="#FFCE31"/>
<path d="M4.55566 17.7832C4.70195 17.9857 4.84865 18.1877 4.99499 18.3893C6.76924 20.8297 8.46376 23.159 8.99211 25.5544H17.9298C18.46 23.1585 20.1527 20.8297 21.9256 18.3893C22.072 18.1877 22.2188 17.9857 22.3651 17.7832" fill="#EFF0F1"/>
<path d="M8.96875 26.665H18.0172V27.665H8.96875V26.665ZM9.60151 28.6649H17.3844V29.6649H9.60151V28.6649Z" fill="#94989B"/>
<path d="M18.0172 26.665L9.60156 28.6649V29.7204L18.0172 27.665V26.665ZM10.2343 30.7204H16.7517V31.7203H10.2343V30.7204Z" fill="#94989B"/>
<path d="M17.3845 28.665L10.2344 30.7205V31.776L17.3845 29.7205V28.665Z" fill="#94989B"/>
</svg>
